<?xml version="1.0" encoding="UTF-8" ?>
<!DOCTYPE svg PUBLIC "-//W3C//DTD SVG 1.1//EN" "http://www.w3.org/Graphics/SVG/1.1/DTD/svg11.dtd">
<svg width="182pt" height="182pt" viewBox="0 0 182 182" version="1.1" xmlns="http://www.w3.org/2000/svg">
<g id="#100b0df8">
<path fill="#100b0d" opacity="0.97" d=" M 90.30 2.15 C 90.70 2.11 91.51 2.03 91.91 1.99 C 108.75 38.49 138.24 68.31 173.20 87.81 C 175.16 89.45 178.81 89.24 179.87 91.72 C 164.56 99.47 150.21 109.04 137.04 120.04 C 120.17 134.48 107.07 152.86 96.04 172.02 C 94.18 174.32 93.76 178.90 91.10 179.98 C 81.09 160.61 68.85 142.03 53.01 126.99 C 39.38 113.83 23.74 102.81 6.95 94.04 C 5.80 93.08 3.12 92.85 3.15 91.15 C 15.61 83.80 28.52 76.96 39.70 67.64 C 61.33 50.32 79.58 27.87 90.30 2.15 M 91.37 36.37 C 87.22 43.20 83.24 50.12 78.65 56.67 C 67.22 71.08 52.69 83.22 36.02 91.10 C 37.07 93.76 41.69 94.17 43.99 96.03 C 63.05 106.99 78.77 123.48 89.23 142.78 C 90.23 144.01 90.39 146.03 91.75 146.85 C 103.64 123.34 123.51 103.77 147.00 91.90 L 146.90 91.14 C 135.33 84.39 123.33 77.81 114.23 67.77 C 104.63 58.83 97.48 47.62 91.86 35.85 L 91.37 36.37 Z" />
</g>
</svg>
